<svg id="add-image" xmlns="http://www.w3.org/2000/svg" width="97" height="83" viewBox="0 0 97.478 83.398">
  <path id="Path_130776" data-name="Path 130776" d="M-458.434,103.262c.153-.022.3-53.684.457-53.7a9.544,9.544,0,0,1,10.384,8.094l5.925,39.9a9.542,9.542,0,0,1-8.038,10.84l-47.251,7.016a9.544,9.544,0,0,1-10.832-7.977c0-.02-.006-1.04-.009-1.061" transform="translate(539.041 -32.119)" fill="#dedef9"/>
  <path id="Path_130777" data-name="Path 130777" d="M-466.754,106.565h-47.769a11.055,11.055,0,0,1-11.043-11.042V70.269a1.5,1.5,0,0,1,1.5-1.5,1.5,1.5,0,0,1,1.5,1.5V95.523a8.052,8.052,0,0,0,8.043,8.042h47.769a8.052,8.052,0,0,0,8.042-8.042V55.182a8.052,8.052,0,0,0-8.042-8.043h-34.24a1.5,1.5,0,0,1-1.5-1.5,1.5,1.5,0,0,1,1.5-1.5h34.24a11.055,11.055,0,0,1,11.042,11.043V95.523a11.054,11.054,0,0,1-11.042,11.042Z" transform="translate(539.041 -32.119)" fill="#242424"/>
  <path id="Path_130778" data-name="Path 130778" d="M-459.069,96.165a1.494,1.494,0,0,1-1.06-.44l-11.278-11.277a3.21,3.21,0,0,0-4.431,0l-7.116,7.115a1.5,1.5,0,0,1-2.121,0l-17.507-17.508a3.139,3.139,0,0,0-4.432,0L-521.148,88.19a1.5,1.5,0,0,1-2.121,0,1.5,1.5,0,0,1,0-2.121l14.134-14.135a6.141,6.141,0,0,1,8.674,0l16.446,16.447,6.056-6.054a6.089,6.089,0,0,1,4.336-1.8,6.09,6.09,0,0,1,4.337,1.8L-458.008,93.6a1.5,1.5,0,0,1,0,2.121,1.5,1.5,0,0,1-1.061.444Z" transform="translate(539.041 -32.119)" fill="#242424"/>
  <path id="Path_130779" data-name="Path 130779" d="M-473.925,69.424A7.08,7.08,0,0,1-481,62.353a7.08,7.08,0,0,1,7.072-7.071,7.079,7.079,0,0,1,7.071,7.071A7.079,7.079,0,0,1-473.925,69.424Zm0-11.142A4.076,4.076,0,0,0-478,62.352a4.076,4.076,0,0,0,4.072,4.072,4.075,4.075,0,0,0,4.071-4.071,4.075,4.075,0,0,0-4.068-4.071Z" transform="translate(539.041 -32.119)" fill="#242424"/>
  <circle id="Ellipse_25323" data-name="Ellipse 25323" cx="16.429" cy="16.429" r="16.429" transform="translate(0 0)" fill="#dedef9"/>
  <g id="Group_292522" data-name="Group 292522" transform="translate(539.041 -32.119)">
    <path id="Path_130780" data-name="Path 130780" d="M-511.7,50.049h-21.82a1.5,1.5,0,0,1-1.5-1.5,1.5,1.5,0,0,1,1.5-1.5h21.82a1.5,1.5,0,0,1,1.5,1.5,1.5,1.5,0,0,1-1.5,1.5Z" fill="#5c5ce0"/>
    <path id="Path_130781" data-name="Path 130781" d="M-522.612,60.959a1.5,1.5,0,0,1-1.5-1.5V37.639a1.5,1.5,0,0,1,1.5-1.5,1.5,1.5,0,0,1,1.5,1.5v21.82a1.5,1.5,0,0,1-1.5,1.5Z" fill="#5c5ce0"/>
  </g>
</svg>
