<svg width="103" height="26" viewBox="0 0 103 26" fill="none" xmlns="http://www.w3.org/2000/svg">
<g filter="url(#filter0_b_1_2)">
<path d="M6.46 2.5C7.78 2.5 8.932 2.668 9.916 3.004C10.924 3.34 11.752 3.82 12.4 4.444C13.072 5.044 13.564 5.764 13.876 6.604C14.212 7.444 14.38 8.38 14.38 9.412C14.38 11.74 13.696 13.54 12.328 14.812C10.96 16.06 8.908 16.684 6.172 16.684H3.58V25H0.628V3.04C1.06 2.944 1.528 2.86 2.032 2.788C2.56 2.716 3.076 2.656 3.58 2.608C4.108 2.56 4.612 2.536 5.092 2.536C5.596 2.512 6.052 2.5 6.46 2.5ZM6.676 5.056C6.052 5.056 5.452 5.068 4.876 5.092C4.3 5.092 3.868 5.116 3.58 5.164V14.164H6.028C7.828 14.164 9.16 13.804 10.024 13.084C10.912 12.364 11.356 11.176 11.356 9.52C11.356 6.544 9.796 5.056 6.676 5.056ZM23.524 5.704C22.9 5.704 22.36 5.488 21.904 5.056C21.448 4.624 21.22 4.036 21.22 3.292C21.22 2.548 21.448 1.96 21.904 1.528C22.36 1.096 22.9 0.879999 23.524 0.879999C24.172 0.879999 24.712 1.096 25.144 1.528C25.6 1.96 25.828 2.548 25.828 3.292C25.828 4.036 25.6 4.624 25.144 5.056C24.712 5.488 24.172 5.704 23.524 5.704ZM22.768 10.78H17.944V8.296H25.72V18.556C25.72 20.212 25.948 21.328 26.404 21.904C26.86 22.456 27.544 22.732 28.456 22.732C29.152 22.732 29.788 22.648 30.364 22.48C30.964 22.312 31.432 22.132 31.768 21.94L32.2 24.46C32.056 24.532 31.852 24.628 31.588 24.748C31.324 24.844 31.012 24.94 30.652 25.036C30.316 25.132 29.932 25.216 29.5 25.288C29.092 25.36 28.66 25.396 28.204 25.396C27.148 25.396 26.272 25.252 25.576 24.964C24.88 24.676 24.316 24.244 23.884 23.668C23.476 23.092 23.188 22.384 23.02 21.544C22.852 20.68 22.768 19.684 22.768 18.556V10.78ZM35.764 16.684C35.764 15.172 36.004 13.864 36.484 12.76C36.964 11.656 37.624 10.744 38.464 10.024C39.304 9.304 40.276 8.776 41.38 8.44C42.508 8.08 43.708 7.9 44.98 7.9C45.796 7.9 46.6 7.96 47.392 8.08C48.208 8.176 49.072 8.368 49.984 8.656L49.3 11.212C48.508 10.924 47.776 10.744 47.104 10.672C46.456 10.576 45.796 10.528 45.124 10.528C44.26 10.528 43.444 10.648 42.676 10.888C41.908 11.104 41.236 11.464 40.66 11.968C40.108 12.448 39.664 13.084 39.328 13.876C38.992 14.644 38.824 15.58 38.824 16.684C38.824 17.74 38.98 18.652 39.292 19.42C39.604 20.164 40.036 20.788 40.588 21.292C41.164 21.772 41.848 22.132 42.64 22.372C43.432 22.612 44.308 22.732 45.268 22.732C46.036 22.732 46.768 22.696 47.464 22.624C48.184 22.528 48.964 22.336 49.804 22.048L50.236 24.532C49.396 24.844 48.544 25.06 47.68 25.18C46.816 25.324 45.88 25.396 44.872 25.396C43.528 25.396 42.292 25.216 41.164 24.856C40.06 24.472 39.1 23.92 38.284 23.2C37.492 22.48 36.868 21.58 36.412 20.5C35.98 19.396 35.764 18.124 35.764 16.684ZM84.544 25L83.212 19.168H74.644L73.348 25H70.324C70.732 23.416 71.188 21.7 71.692 19.852C72.196 18.004 72.736 16.108 73.312 14.164C73.912 12.22 74.536 10.276 75.184 8.332C75.832 6.364 76.516 4.492 77.236 2.716H80.908C81.604 4.492 82.264 6.364 82.888 8.332C83.536 10.276 84.136 12.22 84.688 14.164C85.264 16.108 85.804 18.004 86.308 19.852C86.812 21.7 87.268 23.416 87.676 25H84.544ZM78.964 5.308C78.412 6.82 77.812 8.572 77.164 10.564C76.516 12.556 75.904 14.608 75.328 16.72H82.528C81.976 14.56 81.376 12.484 80.728 10.492C80.104 8.476 79.516 6.748 78.964 5.308ZM98.476 5.236V22.48H102.796V25H91.204V22.48H95.524V5.236H91.204V2.716H102.796V5.236H98.476Z" fill="#BD99F8"/>
</g>
<defs>
<filter id="filter0_b_1_2" x="-3.37201" y="-3.12" width="110.168" height="32.516" filterUnits="userSpaceOnUse" color-interpolation-filters="sRGB">
<feFlood flood-opacity="0" result="BackgroundImageFix"/>
<feGaussianBlur in="BackgroundImageFix" stdDeviation="2"/>
<feComposite in2="SourceAlpha" operator="in" result="effect1_backgroundBlur_1_2"/>
<feBlend mode="normal" in="SourceGraphic" in2="effect1_backgroundBlur_1_2" result="shape"/>
</filter>
</defs>
</svg>
