<svg width="85" height="27" viewBox="0 0 85 27" fill="none" xmlns="http://www.w3.org/2000/svg">
<g filter="url(#filter0_b_1_2)">
<path d="M8.512 14.3C9.52 14.3 10.288 14.072 10.816 13.616C11.368 13.136 11.644 12.416 11.644 11.456C11.644 10.544 11.356 9.848 10.78 9.368C10.228 8.864 9.412 8.612 8.332 8.612C7.948 8.612 7.624 8.624 7.36 8.648C7.12 8.648 6.868 8.672 6.604 8.72V14.3H8.512ZM6.64 25.856C6.376 25.928 5.956 26 5.38 26.072C4.828 26.144 4.276 26.18 3.724 26.18C3.172 26.18 2.68 26.132 2.248 26.036C1.84 25.964 1.492 25.82 1.204 25.604C0.916 25.388 0.7 25.088 0.556 24.704C0.412 24.32 0.34 23.816 0.34 23.192V6.236C0.34 5.732 0.472 5.348 0.736 5.084C1.024 4.796 1.408 4.568 1.888 4.4C2.704 4.112 3.628 3.908 4.66 3.788C5.716 3.644 6.772 3.572 7.828 3.572C11.14 3.572 13.672 4.28 15.424 5.696C17.176 7.112 18.052 9.032 18.052 11.456C18.052 12.632 17.86 13.7 17.476 14.66C17.116 15.596 16.564 16.412 15.82 17.108C15.1 17.78 14.176 18.308 13.048 18.692C11.944 19.052 10.66 19.232 9.196 19.232H6.64V25.856ZM20.2944 3.644C20.2944 2.732 20.5944 1.964 21.1944 1.34C21.8184 0.715999 22.6344 0.403999 23.6424 0.403999C24.6504 0.403999 25.4544 0.715999 26.0544 1.34C26.6784 1.964 26.9904 2.732 26.9904 3.644C26.9904 4.556 26.6784 5.324 26.0544 5.948C25.4544 6.572 24.6504 6.884 23.6424 6.884C22.6344 6.884 21.8184 6.572 21.1944 5.948C20.5944 5.324 20.2944 4.556 20.2944 3.644ZM26.7024 25.964C26.4384 26.012 26.0424 26.072 25.5144 26.144C25.0104 26.24 24.4944 26.288 23.9664 26.288C23.4384 26.288 22.9584 26.252 22.5264 26.18C22.1184 26.108 21.7704 25.964 21.4824 25.748C21.1944 25.532 20.9664 25.244 20.7984 24.884C20.6544 24.5 20.5824 24.008 20.5824 23.408V8.756C20.8464 8.708 21.2304 8.648 21.7344 8.576C22.2624 8.48 22.7904 8.432 23.3184 8.432C23.8464 8.432 24.3144 8.468 24.7224 8.54C25.1544 8.612 25.5144 8.756 25.8024 8.972C26.0904 9.188 26.3064 9.488 26.4504 9.872C26.6184 10.232 26.7024 10.712 26.7024 11.312V25.964ZM40.4626 12.788C39.8626 12.788 39.2866 12.884 38.7346 13.076C38.2066 13.268 37.7386 13.556 37.3306 13.94C36.9466 14.3 36.6346 14.756 36.3946 15.308C36.1546 15.86 36.0346 16.508 36.0346 17.252C36.0346 18.74 36.4546 19.856 37.2946 20.6C38.1586 21.344 39.2026 21.716 40.4266 21.716C41.1466 21.716 41.7706 21.632 42.2986 21.464C42.8266 21.296 43.2946 21.116 43.7026 20.924C44.1826 21.26 44.5426 21.632 44.7826 22.04C45.0226 22.424 45.1426 22.892 45.1426 23.444C45.1426 24.428 44.6746 25.196 43.7386 25.748C42.8026 26.276 41.5066 26.54 39.8506 26.54C38.3386 26.54 36.9706 26.324 35.7466 25.892C34.5226 25.436 33.4666 24.812 32.5786 24.02C31.7146 23.204 31.0426 22.232 30.5626 21.104C30.0826 19.976 29.8426 18.728 29.8426 17.36C29.8426 15.776 30.0946 14.396 30.5986 13.22C31.1266 12.02 31.8346 11.036 32.7226 10.268C33.6106 9.5 34.6306 8.924 35.7826 8.54C36.9586 8.156 38.1946 7.964 39.4906 7.964C41.2186 7.964 42.5506 8.276 43.4866 8.9C44.4226 9.524 44.8906 10.328 44.8906 11.312C44.8906 11.768 44.7826 12.2 44.5666 12.608C44.3506 12.992 44.0986 13.328 43.8106 13.616C43.4026 13.424 42.9106 13.244 42.3346 13.076C41.7586 12.884 41.1346 12.788 40.4626 12.788ZM60.5309 4.832C60.9389 4.592 61.5509 4.364 62.3669 4.148C63.2069 3.932 64.0469 3.824 64.8869 3.824C66.0869 3.824 67.1429 4.004 68.0549 4.364C68.9909 4.7 69.5909 5.24 69.8549 5.984C70.2869 7.232 70.7549 8.684 71.2589 10.34C71.7629 11.996 72.2669 13.712 72.7709 15.488C73.2749 17.24 73.7669 18.98 74.2469 20.708C74.7269 22.412 75.1469 23.924 75.5069 25.244C75.2189 25.58 74.7869 25.844 74.2109 26.036C73.6349 26.252 72.9509 26.36 72.1589 26.36C71.5829 26.36 71.0909 26.312 70.6829 26.216C70.2989 26.12 69.9749 25.976 69.7109 25.784C69.4709 25.592 69.2669 25.34 69.0989 25.028C68.9549 24.716 68.8229 24.356 68.7029 23.948L68.0549 21.464H61.5389C61.3469 22.184 61.1549 22.928 60.9629 23.696C60.7709 24.464 60.5789 25.208 60.3869 25.928C60.0509 26.048 59.6909 26.144 59.3069 26.216C58.9469 26.312 58.5029 26.36 57.9749 26.36C56.7509 26.36 55.8389 26.156 55.2389 25.748C54.6629 25.316 54.3749 24.728 54.3749 23.984C54.3749 23.648 54.4229 23.312 54.5189 22.976C54.6149 22.64 54.7229 22.244 54.8429 21.788C55.0109 21.14 55.2389 20.336 55.5269 19.376C55.8389 18.416 56.1749 17.384 56.5349 16.28C56.8949 15.152 57.2789 14 57.6869 12.824C58.0949 11.648 58.4789 10.544 58.8389 9.512C59.1989 8.456 59.5229 7.52 59.8109 6.704C60.1229 5.888 60.3629 5.264 60.5309 4.832ZM64.8509 9.476C64.5149 10.484 64.1309 11.612 63.6989 12.86C63.2909 14.084 62.9189 15.332 62.5829 16.604H67.0469C66.7109 15.308 66.3629 14.048 66.0029 12.824C65.6669 11.576 65.3549 10.46 65.0669 9.476H64.8509ZM84.7572 25.856C84.4932 25.928 84.0732 26 83.4972 26.072C82.9452 26.144 82.3932 26.18 81.8412 26.18C81.2892 26.18 80.7972 26.132 80.3652 26.036C79.9572 25.964 79.6092 25.82 79.3212 25.604C79.0332 25.388 78.8172 25.088 78.6732 24.704C78.5292 24.32 78.4572 23.816 78.4572 23.192V4.184C78.7212 4.136 79.1412 4.076 79.7172 4.004C80.2932 3.908 80.8452 3.86 81.3732 3.86C81.9252 3.86 82.4052 3.908 82.8132 4.004C83.2452 4.076 83.6052 4.22 83.8932 4.436C84.1812 4.652 84.3972 4.952 84.5412 5.336C84.6852 5.72 84.7572 6.224 84.7572 6.848V25.856Z" fill="#BD99F8"/>
</g>
<defs>
<filter id="filter0_b_1_2" x="-3.66" y="-3.59601" width="92.4172" height="34.136" filterUnits="userSpaceOnUse" color-interpolation-filters="sRGB">
<feFlood flood-opacity="0" result="BackgroundImageFix"/>
<feGaussianBlur in="BackgroundImageFix" stdDeviation="2"/>
<feComposite in2="SourceAlpha" operator="in" result="effect1_backgroundBlur_1_2"/>
<feBlend mode="normal" in="SourceGraphic" in2="effect1_backgroundBlur_1_2" result="shape"/>
</filter>
</defs>
</svg>
